<?xml version="1.0" encoding="iso-8859-1"?>
<!-- Generator: Adobe Illustrator 19.0.0, SVG Export Plug-In . SVG Version: 6.00 Build 0)  -->
<svg version="1.1" id="Capa_1" xmlns="http://www.w3.org/2000/svg" xmlns:xlink="http://www.w3.org/1999/xlink" x="0px" y="0px"
	 viewBox="0 0 512 512" style="enable-background:new 0 0 512 512;" xml:space="preserve">
<polygon style="fill:#FF3B7F;" points="256,0 235.984,251.723 256,512 474.631,394.672 474.631,0 "/>
<polygon style="fill:#FF6E83;" points="37.369,0 37.369,395.766 256,512 256,0 "/>
<polygon style="fill:#B3E4FF;" points="410.632,63.999 256,63.999 235.984,245.67 256,439.368 410.632,356.385 "/>
<polygon style="fill:#EDF0FF;" points="101.368,63.999 101.368,357.309 255.859,439.444 256,439.368 256,63.999 "/>
<path style="fill:#266CB2;" d="M361.806,236.659v-30h-24.152c-2.154-11.75-6.777-22.641-13.328-32.113l17.096-17.096l-21.213-21.213
	l-17.097,17.097c-9.472-6.551-20.363-11.175-32.113-13.329v-24.152h-15l-10.008,37.921L256,168.622
	c29.245,0,53.038,23.792,53.038,53.037S285.245,274.698,256,274.698l-10.008,12.222L256,327.465h15v-24.151
	c11.75-2.154,22.642-6.777,32.113-13.329l17.097,17.097l21.213-21.213l-17.097-17.097c6.551-9.472,11.175-20.363,13.329-32.113
	L361.806,236.659L361.806,236.659z"/>
<path style="fill:#5DACFF;" d="M256,274.698c-29.245,0-53.037-23.793-53.037-53.038s23.792-53.037,53.037-53.037l0,0v-52.769h-15
	v24.152c-11.75,2.154-22.641,6.778-32.113,13.329l-17.097-17.096l-21.213,21.213l17.097,17.097
	c-6.551,9.471-11.175,20.363-13.328,32.112h-24.152v30h24.152c2.154,11.75,6.778,22.642,13.329,32.113l-17.097,17.097l21.213,21.213
	l17.096-17.096c9.471,6.551,20.363,11.175,32.113,13.328v24.151h15V274.698L256,274.698z"/>
<g>
</g>
<g>
</g>
<g>
</g>
<g>
</g>
<g>
</g>
<g>
</g>
<g>
</g>
<g>
</g>
<g>
</g>
<g>
</g>
<g>
</g>
<g>
</g>
<g>
</g>
<g>
</g>
<g>
</g>
</svg>
